<svg width="24" height="24" viewBox="0 0 24 24" fill="none" xmlns="http://www.w3.org/2000/svg">
<path d="M12.973 4C12.973 1.79086 14.7638 0 16.973 0H20C22.2091 0 24 1.79086 24 4V7.02703C24 9.23617 22.2091 11.027 20 11.027H16.973C14.7638 11.027 12.973 9.23617 12.973 7.02703V4Z" fill="#73C500"/>
<path d="M0 4C0 1.79086 1.79086 0 4 0H7.02703C9.23617 0 11.027 1.79086 11.027 4V7.02703C11.027 9.23617 9.23617 11.027 7.02703 11.027H4C1.79086 11.027 0 9.23617 0 7.02703V4Z" fill="#73C500"/>
<path d="M0 16.973C0 14.7638 1.79086 12.973 4 12.973H7.02703C9.23617 12.973 11.027 14.7638 11.027 16.973V20C11.027 22.2091 9.23617 24 7.02703 24H4C1.79086 24 0 22.2091 0 20V16.973Z" fill="#73C500"/>
<path d="M12.973 16.973C12.973 14.7638 14.7638 12.973 16.973 12.973H20C22.2091 12.973 24 14.7638 24 16.973V20C24 22.2091 22.2091 24 20 24H16.973C14.7638 24 12.973 22.2091 12.973 20V16.973Z" fill="#73C500"/>
</svg>
